<svg xmlns="http://www.w3.org/2000/svg" xml:space="preserve" style="enable-background:new 0 0 64 64" viewBox="0 0 64 64">
  <style>
    .st3{fill:#330d00}
  </style>
  <g id="_x34_-Exam">
    <path d="M1.1 9.9h61.8V54H1.1z" style="fill:#ffeea9" transform="rotate(90 32 32)"/>
    <path d="M16.6 17.7h30.9c.6 0 1.1-.5 1.1-1.1 0-.6-.5-1.1-1.1-1.1H16.6c-.6 0-1.1.5-1.1 1.1-.1.6.4 1.1 1.1 1.1zM25.4 11h13.2c.6 0 1.1-.5 1.1-1.1s-.5-1.1-1.1-1.1H25.4c-.6 0-1.1.5-1.1 1.1s.5 1.1 1.1 1.1zM16.6 24.3h30.9c.6 0 1.1-.5 1.1-1.1 0-.6-.5-1.1-1.1-1.1H16.6c-.6 0-1.1.5-1.1 1.1-.1.6.4 1.1 1.1 1.1zM16.6 30.9h30.9c.6 0 1.1-.5 1.1-1.1 0-.6-.5-1.1-1.1-1.1H16.6c-.6 0-1.1.5-1.1 1.1-.1.6.4 1.1 1.1 1.1z" class="st3"/>
    <path d="M54.1 0H9.9c-.6 0-1.1.5-1.1 1.1v61.8c0 .6.5 1.1 1.1 1.1H54c.6 0 1.1-.5 1.1-1.1V1.1c.1-.6-.4-1.1-1-1.1zM53 61.8H11V2.2h42v59.6z" class="st3"/>
    <path d="M16.6 37.5h30.9c.6 0 1.1-.5 1.1-1.1 0-.6-.5-1.1-1.1-1.1H16.6c-.6 0-1.1.5-1.1 1.1-.1.6.4 1.1 1.1 1.1zM16.6 44.1h30.9c.6 0 1.1-.5 1.1-1.1 0-.6-.5-1.1-1.1-1.1H16.6c-.6 0-1.1.5-1.1 1.1-.1.6.4 1.1 1.1 1.1zM16.6 50.8h30.9c.6 0 1.1-.5 1.1-1.1 0-.6-.5-1.1-1.1-1.1H16.6c-.6 0-1.1.5-1.1 1.1-.1.6.4 1.1 1.1 1.1z" class="st3"/>
  </g>
</svg>
